<?xml version="1.0" encoding="iso-8859-1"?>
<!-- Generator: Adobe Illustrator 19.0.0, SVG Export Plug-In . SVG Version: 6.00 Build 0)  -->
<svg version="1.1" id="Layer_1" xmlns="http://www.w3.org/2000/svg" xmlns:xlink="http://www.w3.org/1999/xlink" x="0px" y="0px"
	 viewBox="0 0 512 512" style="enable-background:new 0 0 512 512;" xml:space="preserve">
<g>
	<g>
		<path d="M402.286,190.171h-21.943v-65.83C380.343,55.779,324.563,0,256,0S131.659,55.779,131.659,124.341v65.83h-21.944
			c-12.118,0-21.943,9.825-21.943,21.943v277.943c0,12.118,9.825,21.943,21.943,21.943h292.571c12.118,0,21.943-9.825,21.943-21.943
			V212.114C424.229,199.996,414.404,190.171,402.286,190.171z M277.943,373.029c0,12.118-9.825,21.943-21.943,21.943
			s-21.943-9.825-21.943-21.943v-43.886c0-12.118,9.825-21.943,21.943-21.943s21.943,9.825,21.943,21.943V373.029z M336.457,190.171
			H175.544v-65.83c0-44.363,36.093-80.456,80.456-80.456c44.364,0,80.457,36.093,80.457,80.456V190.171z"/>
	</g>
</g>
<g>
</g>
<g>
</g>
<g>
</g>
<g>
</g>
<g>
</g>
<g>
</g>
<g>
</g>
<g>
</g>
<g>
</g>
<g>
</g>
<g>
</g>
<g>
</g>
<g>
</g>
<g>
</g>
<g>
</g>
</svg>
